 <svg version="1.0" xmlns="http://www.w3.org/2000/svg" width="700.000000pt" height="700.000000pt" viewBox="0 0 700.000000 700.000000" preserveAspectRatio="xMidYMid meet">
<metadata>
Created by potrace 1.12, written by Peter Selinger 2001-2015
</metadata>
<g transform="translate(0.000000,700.000000) scale(0.100000,-0.100000)" fill="#000000" stroke="none">
<path d="M0 5860 l0 -539 563 -3 c309 -2 565 -2 570 0 4 2 7 242 7 533 l0 529
-26 10 c-15 6 -240 10 -570 10 l-544 0 0 -540z"></path>
<path d="M1977 6283 c-4 -3 -7 -199 -7 -434 0 -380 2 -428 16 -433 24 -9 4767
-7 4782 2 10 7 12 101 10 438 l-3 429 -2396 3 c-1318 1 -2399 -1 -2402 -5z"></path>
<path d="M0 3585 l0 -575 573 2 572 3 3 559 c1 404 -1 563 -9 572 -9 12 -112
14 -575 14 l-564 0 0 -575z"></path>
<path d="M2251 4036 c-8 -9 -10 -132 -9 -437 l3 -424 2300 -3 c1265 -1 2310 0
2323 3 l22 5 -2 433 -3 432 -2311 3 c-1945 2 -2313 0 -2323 -12z"></path>
<path d="M0 1285 l0 -575 573 2 572 3 3 550 c1 303 0 560 -3 573 l-5 22 -570
0 -570 0 0 -575z"></path>
<path d="M1922 1688 c-9 -9 -12 -121 -12 -424 0 -227 3 -419 6 -428 6 -15 226
-16 2398 -16 1847 0 2395 3 2404 12 19 19 17 841 -2 857 -20 17 -4778 15
-4794 -1z"></path>
</g>
</svg>